<svg width="42" height="33" viewBox="0 0 42 33" fill="none" xmlns="http://www.w3.org/2000/svg">
<path fill-rule="evenodd" clip-rule="evenodd" d="M1.75736 1.75736C2.88258 0.632142 4.4087 0 6 0H36C37.5913 0 39.1174 0.632142 40.2426 1.75736C41.3679 2.88258 42 4.4087 42 6V27C42 28.5913 41.3679 30.1174 40.2426 31.2426C39.1174 32.3679 37.5913 33 36 33H6C4.4087 33 2.88258 32.3679 1.75736 31.2426C0.632141 30.1174 0 28.5913 0 27V6C0 4.4087 0.632141 2.88258 1.75736 1.75736ZM3 12V27C3 27.7956 3.31607 28.5587 3.87868 29.1213C4.44129 29.6839 5.20435 30 6 30H36C36.7957 30 37.5587 29.6839 38.1213 29.1213C38.6839 28.5587 39 27.7956 39 27V12H3ZM39 7.5H3V6C3 5.20435 3.31607 4.44129 3.87868 3.87868C4.44129 3.31607 5.20435 3 6 3H36C36.7957 3 37.5587 3.31607 38.1213 3.87868C38.6839 4.44129 39 5.20435 39 6V7.5ZM6 21C6 20.1716 6.67157 19.5 7.5 19.5H19.5C20.3284 19.5 21 20.1716 21 21C21 21.8284 20.3284 22.5 19.5 22.5H7.5C6.67157 22.5 6 21.8284 6 21ZM6 25.5C6 24.6716 6.67157 24 7.5 24H13.5C14.3284 24 15 24.6716 15 25.5C15 26.3284 14.3284 27 13.5 27H7.5C6.67157 27 6 26.3284 6 25.5Z" fill="#5A5B58"/>
</svg>
