<svg width="17" height="19" viewBox="0 0 17 19" fill="none" xmlns="http://www.w3.org/2000/svg">
<path d="M16.1667 9.91668C16.1667 11.0673 15.2339 12 14.0833 12C12.9327 12 12 11.0673 12 9.91668C12 8.76609 12.9327 7.83335 14.0833 7.83335C15.2339 7.83335 16.1667 8.76609 16.1667 9.91668Z" fill="#7D32FC"/>
<path d="M6.58333 1.58323H7.41667C8.33714 1.58323 9.08333 2.32942 9.08333 3.2499V6.58335C9.08333 8.88454 7.21785 10.75 4.91667 10.75M3.25 1.58323H2.41667C1.49619 1.58323 0.75 2.32942 0.75 3.2499V6.58335C0.75 8.88453 2.61548 10.75 4.91667 10.75M4.91667 10.75V12.8333C4.91667 15.3647 6.9687 17.4167 9.5 17.4167C12.0313 17.4167 14.0833 15.3647 14.0833 12.8333V12M14.0833 12C15.2339 12 16.1667 11.0673 16.1667 9.91668C16.1667 8.76609 15.2339 7.83335 14.0833 7.83335C12.9327 7.83335 12 8.76609 12 9.91668C12 11.0673 12.9327 12 14.0833 12ZM6.58333 0.75L6.58331 2.4165M3.25 0.750015V2.41668" stroke="#7D32FC" stroke-width="1.5" stroke-linecap="round" stroke-linejoin="round"/>
</svg>
