<svg width="22" height="22" viewBox="0 0 22 22" fill="none" xmlns="http://www.w3.org/2000/svg">
<rect width="22" height="22" rx="11" fill="#EBE3FE"/>
<path d="M8.90225 7.40384H13.0978M9.80128 13.9968H12.1987M11 15.1955V12.7981M12.7981 10.5047C14.2155 11.1781 15.1955 12.6228 15.1955 14.2965V15.4952C15.1955 16.1572 14.6588 16.6939 13.9968 16.6939H8.00321C7.34117 16.6939 6.80449 16.1572 6.80449 15.4952V14.2965C6.80449 12.6228 7.78447 11.1781 9.20193 10.5047M11 11C9.84144 11 8.90225 10.0608 8.90225 8.90224V6.20513C8.90225 5.54309 9.43893 5.00641 10.101 5.00641H11.899C12.5611 5.00641 13.0978 5.54309 13.0978 6.20513V8.90224C13.0978 10.0608 12.1586 11 11 11Z" stroke="#4307A9" stroke-width="0.634615" stroke-linecap="round" stroke-linejoin="round"/>
</svg>
