<svg width="14" height="8" viewBox="0 0 14 8" fill="none" xmlns="http://www.w3.org/2000/svg">
<path fill-rule="evenodd" clip-rule="evenodd" d="M7.30108 7.33226C7.18389 7.4493 7.02504 7.51504 6.85941 7.51504C6.69378 7.51504 6.53493 7.4493 6.41774 7.33226L0.167743 1.08226C0.0573432 0.963777 -0.00275947 0.807073 9.73725e-05 0.645155C0.00295422 0.483237 0.0685475 0.328749 0.183058 0.214238C0.297569 0.0997277 0.452057 0.0341345 0.613974 0.0312776C0.775892 0.0284208 0.932598 0.0885233 1.05108 0.198923L6.85941 6.00726L12.6677 0.198923C12.725 0.137518 12.794 0.0882658 12.8706 0.0541058C12.9473 0.0199459 13.0301 0.00157792 13.114 9.72687e-05C13.1979 -0.00138339 13.2813 0.0140536 13.3591 0.0454878C13.4369 0.076922 13.5076 0.123709 13.5669 0.183058C13.6263 0.242407 13.6731 0.313102 13.7045 0.390925C13.7359 0.468749 13.7514 0.552106 13.7499 0.636025C13.7484 0.719944 13.7301 0.802706 13.6959 0.879372C13.6617 0.956038 13.6125 1.02504 13.5511 1.08226L7.30108 7.33226Z" fill="#1E1E1D"/>
</svg>
