<svg width="56" height="56" viewBox="0 0 56 56" fill="none" xmlns="http://www.w3.org/2000/svg">
<rect width="56" height="56" rx="28" fill="#F28787"/>
<path d="M13 21.334C13 17.6521 15.9848 14.6673 19.6667 14.6673H36.3333C40.0152 14.6673 43 17.6521 43 21.334V36.334C43 40.0159 40.0152 43.0007 36.3333 43.0007H19.6667C15.9848 43.0007 13 40.0159 13 36.334V21.334Z" fill="#FF3B3B"/>
<path d="M23 32.1673H28M28 32.1673H33M28 32.1673V27.1673M28 32.1673V37.1673M13 21.334V36.334C13 40.0159 15.9848 43.0007 19.6667 43.0007H36.3333C40.0152 43.0007 43 40.0159 43 36.334V21.334M13 21.334H43M13 21.334C13 17.6521 15.9848 14.6673 19.6667 14.6673M43 21.334C43 17.6521 40.0152 14.6673 36.3333 14.6673M19.6667 11.334V14.6673M19.6667 14.6673H36.3333M36.3333 11.334V14.6673" stroke="#F8F8F9" stroke-width="1.5" stroke-linecap="round" stroke-linejoin="round"/>
</svg>
